<svg xmlns="http://www.w3.org/2000/svg" viewBox="0 0 640 640" role="img" aria-label="QUALog ロゴ">
  <title>QUALog ロゴ</title>
  <rect width="640" height="640" fill="#FFFFFF" />
  <g fill="#1A2A4A">
    <path d="M320 156 138 230l182 74 182-74-182-74Zm-92 120 92 36 92-36v58l-92 36-92-36v-58Z" />
    <path d="M184 256v72l136 54 136-54v-72l-44 18v56l-92 36-92-36v-56l-44-18Z" />
    <path d="M210 282h16v72h-16z" />
    <path d="M210 278c0 10-8 18-18 18v-12c4 0 8-4 8-8v-18c0-8 6-14 14-14h14v-12h-14c-14 0-24 10-24 24v22Z" />
    <circle cx="320" cy="206" r="10" fill="#FFFFFF" />
  </g>
  <text
    x="320"
    y="430"
    text-anchor="middle"
    font-family="Segoe UI, Arial, sans-serif"
    font-size="72"
    font-weight="800"
    letter-spacing="3"
    fill="#1A2A4A"
  >
    QUALOG
  </text>
</svg>
